# xmcd CD database file generated by Grip 2.96
# 
# Track frame offsets:
#       150
#       21655
#       35447
#       50718
#       66977
#       93887
#       107465
#       128422
#       148308
#       166288
#       191850
#       204190
#       217205
#       232972
#       250084
#       263987
#       284682
# 
# Disc length: 4001 seconds
# 
# Revision: 0
# Processed by: cddbd v1.4PL0 Copyright (c) Steve Scherf et al.
# Submitted via: Grip 2.96
# 
DISCID=060f9f11
DTITLE=Various Artist - Iowa Blues 6
DYEAR=1900
DGENRE=
TTITLE0=Shane Johnson's Blue Train - With You Tonight
TTITLE1=Erick Hovey Band - Devil In My Pocket
TTITLE2=Effie Burt and The Blues Revue - Tell Me Baby
TTITLE3=Dennis Garcia - Down To The River
TTITLE4=Patrick Hazell and The Mother Blues Band - Movin' Time
TTITLE5=Rob Lumbard - Sometimes I Really Hate This Place
TTITLE6=Dan (DJ) Johnson - You're Gonna Be Blue
TTITLE7=Flat Cat - Hit The Gravel
TTITLE8=Brass Transit - Hey! El Nino!
TTITLE9=Billylee Janey - Mankiller
TTITLE10=B. F. Burt and The Instigators - I Ain't Gonna Leave You
TTITLE11=The Blue Band - OW! (Little Richard)
TTITLE12=Fingers - Viable Trade
TTITLE13=Dennis Kain - Hardwood Blues
TTITLE14=Jeff Reeder - Silver Fox
TTITLE15=Uncle Irene - Slow Train
TTITLE16=Who's Drive'n - The Car Salesman Blues
EXTD=
EXTT0=
EXTT1=
EXTT2=
EXTT3=
EXTT4=
EXTT5=
EXTT6=
EXTT7=
EXTT8=
EXTT9=
EXTT10=
EXTT11=
EXTT12=
EXTT13=
EXTT14=
EXTT15=
EXTT16=
PLAYORDER=
